PathFileType	4	(X/Y/Z)	Patient4_TMGait_0pt5_01_left_32.trc.trc
DataRate	CameraRate	NumFrames	NumMarkers	Units	OrigDataRate	OrigDataStartFrame	OrigNumFrames
75.268817204301	75.268817204301	4	33	mm	75.268817204301	71	       141
Frame#	Time	L.ASIS			Sacral			L.Shoulder			Chest			R.Shoulder			Neck			R.ASIS			R.Thigh.Superior			R.Thigh.Lateral			R.Thigh.Inferior			R.Patella			L.Thigh.Superior			L.Thigh.Lateral			L.Thigh.Inferior			L.Patella			L.Shank.Superior			L.Shank.Lateral			L.Shank.Inferior			R.Shank.Superior			R.Shank.Lateral			R.Shank.Inferior			R.Heel			R.Midfoot.Superior			R.Midfoot.Lateral			R.Toe			L.Heel			L.Midfoot.Lateral			L.Midfoot.Superior			L.Toe			L.Elbow			L.Wrist			R.Elbow			R.Wrist			
		X1	Y1	Z1	X2	Y2	Z2	X3	Y3	Z3	X4	Y4	Z4	X5	Y5	Z5	X6	Y6	Z6	X7	Y7	Z7	X8	Y8	Z8	X9	Y9	Z9	X10	Y10	Z10	X11	Y11	Z11	X12	Y12	Z12	X13	Y13	Z13	X14	Y14	Z14	X15	Y15	Z15	X16	Y16	Z16	X17	Y17	Z17	X18	Y18	Z18	X19	Y19	Z19	X20	Y20	Z20	X21	Y21	Z21	X22	Y22	Z22	X23	Y23	Z23	X24	Y24	Z24	X25	Y25	Z25	X26	Y26	Z26	X27	Y27	Z27	X28	Y28	Z28	X29	Y29	Z29	X30	Y30	Z30	X31	Y31	Z31	X32	Y32	Z32	X33	Y33	Z33	

71	43.610000000000	813.182539615834	958.563473960686	302.034727290773	590.733977177513	1007.279486345100	444.515622422611	787.350709955017	1408.335774699941	233.270808251992	874.060583757024	1359.410594509513	409.956785633520	776.835963167589	1458.075783614634	566.188501408866	779.386733940833	1489.369837999594	373.919617763529	808.396121442390	945.595773516660	577.531001128822	886.073113095257	776.660920994604	558.448248143530	843.181683766979	653.331917970836	631.709638748546	936.710250091391	617.519031411576	556.918891655813	971.728957321622	534.997452568544	573.125052820247	822.614444235089	739.120980062126	330.159605149928	710.880653243436	640.198073948337	267.803327579536	776.203426436288	550.280765427074	330.627196887663	763.180115990340	483.792810602263	340.322529139395	734.503707608800	415.717323187687	333.398127100851	637.040941865202	305.347994183808	286.794104305107	686.725156782584	193.645450379467	360.406722443785	958.393816895975	446.024319177672	582.986668546537	908.581731613997	334.481058943270	651.125603511250	976.772119157832	247.486728953777	599.894994394183	885.415730921814	57.744651187561	580.521344839285	1045.865349837707	137.289538997631	612.626263727969	972.911397038181	58.183194371963	649.575819460962	1173.236712243795	105.947502401190	633.853813176154	554.985008298811	38.217408205056	406.572188691693	630.124386717813	34.461181534482	326.669036248175	713.027996990797	96.495589883566	352.700645445726	841.262564394503	46.577989135648	329.057551770173	798.935121963457	1048.707519065199	132.191551947208	942.560043533275	829.594650668111	134.424647431166	625.265672172006	1171.166055070756	718.078988038241	603.622256505483	916.976097140513	776.401857450342	
72	43.623285714286	813.311138107074	958.071498859407	303.110488749531	591.086139684820	1006.201747603741	446.329301404396	786.261207449749	1407.786078216547	235.294286465108	873.410020196548	1358.861914204084	411.730496224637	776.190088173098	1457.149272823448	568.240558079729	778.406571506003	1488.580733260393	376.000873334303	809.229691948143	944.250381822288	578.714033976996	886.671930312528	774.736125879818	558.982334349458	842.799965922256	651.179629989647	631.475929779427	936.016763483690	615.265227773502	556.595901627117	970.119363076285	532.542496859320	572.237388722394	820.954707973156	737.879775445690	330.803220971825	707.608744844196	640.121757629161	268.557829507453	771.877223458119	549.538023613737	331.155156301224	758.190347505978	483.134001293340	340.904308346198	729.191485925370	415.432727737838	333.814557885926	631.168175361125	305.573834940403	287.104774731853	680.402128889204	193.523295036318	360.590540216989	956.310747511061	443.062441743311	582.129230432840	905.689365612164	331.711644408100	649.897568176409	973.111694579286	244.378759017648	598.325185782977	880.212164810490	55.662409709288	578.453183470777	1041.479139958781	134.049229817555	611.120129116683	967.615955456213	55.446491456776	647.679976351854	1168.307372332339	101.349345524950	632.074446335858	548.276385085504	38.199487335971	406.604373933783	623.393910692998	34.469856818104	326.690265174944	706.311029689374	96.434817016592	352.767501713842	834.525062570832	46.544522412723	329.076960334892	798.558331069376	1048.146658354816	134.452376420080	944.333986363377	830.363382757409	137.389758440610	625.215550137344	1170.474739749071	720.841451530741	607.392255039366	916.002093043032	779.424071452379	
73	43.636571428571	813.616338853264	957.462127717264	304.249566295094	591.695421934532	1004.971638842202	448.351010585944	785.095506006738	1407.194295628749	237.597997594014	872.850072945824	1358.253945538432	413.710345140094	775.667760390358	1455.992278006931	570.590297700190	777.412436165564	1487.690218130918	378.409299716940	810.387569516820	942.678920572653	579.906602796828	887.420111182185	772.334187835204	559.397449167389	842.276554049571	648.709865897811	631.094907927653	935.085453087327	612.565313925453	556.054388096281	968.042682718514	529.499535190098	571.155116408131	819.582720474273	736.536135271480	331.393515773901	704.623670628154	639.942117396612	269.371024617747	767.886709895837	548.696429057631	331.701533392770	753.543758673633	482.343387781312	341.553436410832	724.180785083342	415.012075491112	334.292565553134	625.507685787463	305.744417647906	287.459538384009	674.170324254031	193.308514018799	360.817333340696	953.596128453231	439.528450528213	581.143977471743	901.839951882445	328.437468485124	648.425423027187	968.376173213018	240.655439622633	596.568399065964	873.492935050210	53.328827709314	576.145633731117	1035.752598578334	130.082598839661	609.430740312024	960.738612420188	52.336154712382	645.677788806162	1161.939743230746	95.665260552578	630.271010025136	541.565538471097	38.126813796186	406.635233491852	616.657747884555	34.455559508068	326.712744435559	699.574290559968	96.352543996410	352.859433826484	827.781051318224	46.500707650090	329.093987267948	797.954606776691	1047.591096653060	136.791258273384	945.896293137204	831.167922678504	140.317073877752	625.621796121831	1169.304604336211	723.810314245117	612.261066390024	914.497322623619	782.419795372889	
74	43.649857142857	814.098571561319	956.740126453309	305.460651172022	592.547475922728	1003.611651077380	450.553360715335	783.873581061541	1406.577737545943	240.184410903843	872.401637643637	1357.594476893692	415.897981361777	775.296898776801	1454.617865444034	573.242641588945	776.438431603731	1486.719759376593	381.150369323048	811.843006703119	940.920202752824	581.105757647249	888.272658315526	769.471386784302	559.724113812956	841.555863819821	645.978976852082	630.605620196124	933.882526425019	609.478571242372	555.340325609382	965.490999788145	525.966194445115	569.908736355476	818.525910175512	735.102832227203	331.982062845483	702.005452220780	639.642043551441	270.271090652347	764.309817627678	547.746277737386	332.325787804247	749.326656273701	481.397879810457	342.317011204854	719.545535278161	414.428962180692	334.873985838941	620.118548468626	305.856091625201	287.887205207687	668.056404602701	192.987367258012	361.109379886808	950.323171395268	435.572278603992	580.061391418247	897.240609411339	324.776055099560	646.778637383411	962.840388734848	236.496386293862	594.684753492661	865.682270207288	50.879780441496	573.733685211456	1029.041254816655	125.592282345096	607.562325035119	952.730098550820	49.052317297518	643.658148189980	1154.543531802683	89.214131060219	628.440565639994	534.850603197606	37.996960948645	406.664842449524	609.918173296150	34.414854254926	326.742048214108	692.820112616473	96.248889246293	352.983610143347	821.034761950307	46.434983518439	329.108946286153	797.086485226154	1047.047917534749	139.199064278418	947.203044503762	832.011097263248	143.157356473085	626.533526782864	1167.652080111681	726.983958378542	618.177314821336	912.498449604698	785.388983661294	
